<svg xmlns="http://www.w3.org/2000/svg" version="1.1" xmlns:xlink="http://www.w3.org/1999/xlink" xmlns:svgjs="http://svgjs.dev/svgjs" width="100%" height="100%" viewBox="0 0 1000 600"><rect width="1000" height="600" x="0" y="0" fill="#ffffff"/><g><rect width="333.3333333333333" height="333.3333333333333" rx="13.333333333333334" ry="13.333333333333334" y="218.8243747188896" fill="#2bb6a3" transform="matrix(0.6358017217560298,0,0,0.6358017217560298,0,54.90411748759182)" x="196.6021728515625"/><path d="M233.58889240458387 310.4910530275032L252.73140436428938 310.4910530275032L252.73140436428938 460.4910521060787L233.58889240458387 460.4910521060787L233.58889240458387 310.4910530275032ZM250.98019664557813 372.0248690746322L324.2591817026842 372.0248690746322L324.2591817026842 388.5405694562708L250.98019664557813 388.5405694562708L250.98019664557813 372.0248690746322ZM321.8739160168534 310.4910530275032L340.98623474002943 310.4910530275032L340.98623474002943 460.4910521060787L321.8739160168534 460.4910521060787L321.8739160168534 310.4910530275032ZM417.5260893423219 310.4910530275032L437.51401192485343 310.4910530275032Q440.1106302663908 310.4910530275032 442.07319064080855 311.9101351443898Q444.0357510152263 313.32921726127654 444.7000022188754 315.71448294710734L444.7000022188754 315.71448294710734L492.94879419302276 460.4910521060787L473.17222426619765 460.4910521060787L434.253142379667 337.45361324835017Q433.3775385203115 334.4040963588703 432.41135495136734 331.2639997598019Q431.41497814589366 328.09370992420395 430.5695675230676 325.2857389269601L430.5695675230676 325.2857389269601L424.4705337441078 325.2857389269601Q423.59492988475216 328.09370992420395 422.7193260253965 331.2639997598019Q421.87391540257045 334.4040963588703 420.7869588875083 337.45361324835017L420.7869588875083 337.45361324835017L381.8678770009777 460.4910521060787L362.0913070741526 460.4910521060787L410.3400990483 315.71448294710734Q411.004350251949 313.32921726127654 412.93671738983727 311.9101351443898Q414.89927776425503 310.4910530275032 417.5260893423219 310.4910530275032L417.5260893423219 310.4910530275032ZM389.2652199507062 397.02486892106145L465.3521760050561 397.02486892106145L465.3521760050561 413.5405693027001L389.2652199507062 413.5405693027001L389.2652199507062 397.02486892106145Z " fill="#ffffff" transform="matrix(0.6358017217560298,0,0,0.6358017217560298,0,54.90411748759182)"/><path d="M613.2688394687399 312.14674668204174L627.8480183715202 312.14674668204174L627.8480183715202 426.3886406710202L613.2688394687399 426.3886406710202L613.2688394687399 312.14674668204174ZM626.5142764529693 359.0116782338811L682.3244770792276 359.0116782338811L682.3244770792276 371.59024425883507L626.5142764529693 371.59024425883507L626.5142764529693 359.0116782338811ZM680.50782860396 312.14674668204174L695.0640119564204 312.14674668204174L695.0640119564204 426.3886406710202L680.50782860396 426.3886406710202L680.50782860396 312.14674668204174ZM755.496318196967 343.7656283718254L755.496318196967 343.7656283718254Q773.7087940502823 343.7656283718254 781.9182055144662 350.3883468639401Q790.1046214283301 357.01106535605476 790.1046214283301 370.0955334880453L790.1046214283301 370.0955334880453Q790.2655902805691 380.85745103773166 785.6434846662808 386.9052807718503Q780.9983835016725 392.95311050596894 770.9033369112616 392.95311050596894L770.9033369112616 392.95311050596894L723.8774365071832 392.95311050596894L723.8774365071832 382.0072285537238L767.2470444104065 382.0072285537238Q772.7199853865291 382.0072285537238 774.3756650095578 378.2819494019093Q776.0313446325865 374.5566702500948 776.0313446325865 370.0955334880453L776.0313446325865 370.0955334880453Q775.8703757803476 362.3230374799385 771.3862434679783 359.0116782338811Q766.9251067059288 355.7003189878238 756.1631891562424 355.7003189878238L756.1631891562424 355.7003189878238Q747.3788889340625 355.7003189878238 742.342863414017 358.2528250733263Q737.2838423436515 360.82832670914866 735.2142428148657 367.1980941477451Q733.1446432860798 373.5678615863415 733.1446432860798 384.9966500953033L733.1446432860798 384.9966500953033Q733.1446432860798 397.9201493750549 735.7201449219021 404.7038367194085Q738.2726510074048 411.4875240637621 743.9065608357662 413.97104349830516Q749.5404706641277 416.45456293284815 758.8076774430242 416.45456293284815L758.8076774430242 416.45456293284815Q765.2694270829 416.45456293284815 772.9729364400474 415.8796741748521Q780.6764457971947 415.304785416856 786.7932621822729 414.47694560534165L786.7932621822729 414.47694560534165L788.2879729530626 423.9051212364772Q784.4707115999687 425.399832007267 778.9287839728867 426.3886406710202Q773.3868563458045 427.3774493347734 767.4999954639248 427.88335144180996Q761.636130132365 428.3662579985267 756.9910289677567 428.3662579985267L756.9910289677567 428.3662579985267Q743.0787210242519 428.3662579985267 734.6393540568696 424.15807228999546Q726.1999870894873 419.9268910311444 722.313739085434 410.5677020509684Q718.4044955310607 401.23150862111225 718.4044955310607 385.8244899068177L718.4044955310607 385.8244899068177Q718.4044955310607 369.9345646358064 722.313739085434 360.7363445078693Q726.1999870894873 351.56111993025206 734.3864030033513 347.6518763758788Q742.5958144675352 343.7656283718254 755.496318196967 343.7656283718254ZM854.6761267264485 343.7656283718254L854.6761267264485 343.7656283718254Q869.5772433337065 343.7656283718254 876.7058639328577 353.44675505647916Q883.8114889816891 363.1508772914528 883.8114889816891 385.8244899068177L883.8114889816891 385.8244899068177Q883.8114889816891 396.2644697520263 882.086822707701 404.19793461237197Q880.3391608833929 412.1543950230376 876.2919440271006 417.53535379788076Q872.2217316204884 422.91631257272394 865.3460620748555 425.6527830607852Q858.4933880795423 428.3662579985267 848.0534082343338 428.3662579985267L848.0534082343338 428.3662579985267Q843.9142091767621 428.3662579985267 839.1081391599149 428.0443202940489Q834.3020691430678 427.72238258957105 829.3350302739818 426.96352942901626Q824.3679914048957 426.2276718187813 819.6539035893281 425.1468809537487Q814.9398157737603 424.06609008871607 810.9615855684275 422.5713793179263L810.9615855684275 422.5713793179263L822.2294052251505 412.9822348345519Q826.6905419871998 414.2929812027829 831.0826920982898 415.1208210142973Q835.4748422093799 415.9486608258116 839.683027917911 416.20161187932985Q843.9142091767621 416.45456293284815 847.731470529856 416.45456293284815L847.731470529856 416.45456293284815Q855.5039665379628 416.29359408060924 860.2180543535305 413.4651413912686Q864.9321421690983 410.65968425224776 867.0937238991635 403.9449835588537Q869.2553056292288 397.2532784157795 869.2553056292288 385.8244899068177L869.2553056292288 385.8244899068177Q869.2553056292288 374.7406346526535 867.5996260062001 368.1869028114983Q865.9439463831714 361.656166520663 861.7127651243203 358.82771383132234Q857.4815838654692 356.02225669230154 849.7090878573624 356.02225669230154L849.7090878573624 356.02225669230154Q843.0863693652477 356.02225669230154 837.1305218324085 359.5865669918772Q831.1746742995692 363.1508772914528 823.3791827411426 369.26769367653094L823.3791827411426 369.26769367653094L822.3903740773893 359.83951804539544Q827.3574129464753 354.5275459215118 832.5774028690796 350.9632356219362Q837.7973927916839 347.4219208726804 843.4083070697255 345.58227684709294Q849.042216898087 343.7656283718254 854.6761267264485 343.7656283718254ZM810.9615855684275 310.49106705901306L825.0348623641712 310.49106705901306L825.0348623641712 340.615237978007Q825.0348623641712 345.7662412496517 824.781911310653 350.0664091594623Q824.5519558074545 354.36657706927286 823.5401515933814 358.82771383132234L823.5401515933814 358.82771383132234L824.8738935119324 361.1502644136265L825.0348623641712 423.23825027720176L810.9615855684275 422.5713793179263L810.9615855684275 310.49106705901306ZM943.760888665519 343.7656283718254L943.760888665519 343.7656283718254Q952.6831621896181 343.7656283718254 958.8919607759756 346.1801611554089Q965.1007593623331 348.57169838867253 968.2511497561516 354.205608217034Q971.40154014997 359.83951804539544 971.40154014997 369.58963138100876L971.40154014997 369.58963138100876L971.40154014997 426.3886406710202L960.3176848958058 426.3886406710202L958.1561031657407 408.84303577698023L957.1672945019873 407.02638730171265L957.1672945019873 369.58963138100876Q957.1672945019873 362.1390730773797 953.7639530546506 358.91969603260173Q950.3836071576338 355.7003189878238 940.7714671239395 355.7003189878238L940.7714671239395 355.7003189878238Q934.4706863363026 355.7003189878238 924.9505285038878 356.34419439677936Q915.4303706714728 357.01106535605476 906.1631638925762 357.8389051675691L906.1631638925762 357.8389051675691L904.8524175243451 347.4219208726804Q910.4633318023868 346.4101166586073 917.1780324957808 345.58227684709294Q923.892733189175 344.75443703557863 930.8373893857674 344.27153047886196Q937.78204558236 343.7656283718254 943.760888665519 343.7656283718254ZM923.5477999343773 376.71825198016L964.7788216578552 376.71825198016L964.6178528056164 387.31920067760745L926.0313193689203 387.48016952984636Q920.2364406883199 387.6411383820853 917.913890106016 390.5385777223854Q915.6143350740316 393.4360170626856 915.6143350740316 398.56402478401054L915.6143350740316 398.56402478401054L915.6143350740316 403.7150280556553Q915.6143350740316 409.99281329297236 918.5807610652913 412.8902526332725Q921.570182606871 415.7876919735727 928.1929010989855 415.7876919735727L928.1929010989855 415.7876919735727Q932.8150067132739 415.7876919735727 938.7018675951537 414.0630256995845Q944.5887284770333 412.31536387527643 950.5445760098726 408.6820669247413Q956.5004235427119 405.02577442388633 961.4674624117979 399.39186459552485L961.4674624117979 399.39186459552485L961.4674624117979 409.83184444073345Q959.6508139365303 412.1543950230376 956.2474724891936 415.2128032155766Q952.8671265921768 418.27121140811573 948.1300432262892 421.16865074841587Q943.4159554107214 424.06609008871607 937.7130589314004 425.97472076526304Q931.9871669017596 427.88335144180996 925.3644484096449 427.88335144180996L925.3644484096449 427.88335144180996Q918.2588233608135 427.88335144180996 912.7858823846909 425.3078498059876Q907.3359369588882 422.75534372048503 904.2545332160294 417.69632265011967Q901.1961250234903 412.63730157975425 901.1961250234903 405.37070767868397L901.1961250234903 405.37070767868397L901.1961250234903 396.58640745650405Q901.1961250234903 387.15823182536855 907.0829859053699 381.9382419027643Q912.9468512369299 376.71825198016 923.5477999343773 376.71825198016L923.5477999343773 376.71825198016ZM1064.4415367440536 312.14674668204174L1079.687586606109 312.14674668204174Q1081.6652039336157 312.14674668204174 1083.1599147044053 313.2275375470743Q1084.6546254751952 314.3083284121069 1085.1375320319119 316.1249768873745L1085.1375320319119 316.1249768873745L1121.9074169933403 426.3886406710202L1106.8453315338434 426.3886406710202L1077.204067171566 332.68177311766124Q1076.5371962122908 330.3592225353571 1075.8013386020557 327.96768530209346Q1075.042485441501 325.55315251851 1074.3756144822255 323.4145663387646L1074.3756144822255 323.4145663387646L1069.7535088679372 323.4145663387646Q1069.0866379086617 325.55315251851 1068.4197669493863 327.96768530209346Q1067.7528959901108 330.3592225353571 1066.9250561785964 332.68177311766124L1066.9250561785964 332.68177311766124L1037.3067873666391 426.3886406710202L1022.2217063568223 426.3886406710202L1058.9915913182508 316.1249768873745Q1059.4744978749675 314.3083284121069 1060.9692086457571 313.2275375470743Q1062.463919416547 312.14674668204174 1064.4415367440536 312.14674668204174L1064.4415367440536 312.14674668204174ZM1042.9177016446806 378.05199389871086L1100.8664884506843 378.05199389871086L1100.8664884506843 390.6305599236648L1042.9177016446806 390.6305599236648L1042.9177016446806 378.05199389871086ZM1163.2994075690572 343.7656283718254L1163.2994075690572 343.7656283718254Q1168.5883841426212 343.7656283718254 1174.5442316754602 344.11056162662305Q1180.5230747586193 344.4324993311008 1186.3869400901795 344.93840143813736Q1192.273800972059 345.4213079948541 1197.2408398411449 346.2491478063684L1197.2408398411449 346.2491478063684L1196.068066774833 356.5281587993381Q1188.456539618965 356.18322554454045 1180.753030261818 355.9302744910222Q1173.0725164549904 355.7003189878238 1165.4379937488025 355.7003189878238L1165.4379937488025 355.7003189878238Q1157.9874354451736 355.516354585265 1153.687267535363 356.02225669230154Q1149.3870996255523 356.5281587993381 1147.4784689490052 358.6667449790835Q1145.5698382724586 360.82832670914866 1145.5698382724586 365.9563344304736L1145.5698382724586 365.9563344304736Q1145.5698382724586 372.25711521811047 1148.559259814038 374.23473254561696Q1151.5486813556176 376.21234987312346 1157.343560036218 377.5460917916743L1157.343560036218 377.5460917916743L1180.8450124630972 382.8350683652381Q1190.4571524967914 385.15761894754223 1195.0102714601203 389.96368896438935Q1199.5633904234492 394.7697589812365 1199.5633904234492 405.02577442388633L1199.5633904234492 405.02577442388633Q1199.5633904234492 414.9598521620584 1195.8381112716347 419.9268910311444Q1192.1128321198203 424.89392990023043 1184.4783094136324 426.5496095232591Q1176.8667822577645 428.2052891462878 1165.116056044325 428.2052891462878L1165.116056044325 428.2052891462878Q1160.8158881345144 428.2052891462878 1152.2845389658526 427.88335144180996Q1143.7531897971908 427.5384181870123 1133.4971743545411 425.88273856398365L1133.4971743545411 425.88273856398365L1134.4859830182943 415.6267231213338Q1138.4642132236272 415.7876919735727 1142.9253499856766 416.040643027091Q1147.409482298046 416.29359408060924 1152.2845389658526 416.29359408060924Q1157.1595956336591 416.29359408060924 1162.3105989053038 416.29359408060924L1162.3105989053038 416.29359408060924Q1171.4168368319615 416.29359408060924 1176.5448445532866 415.46575426909493Q1181.6728522746116 414.63791445758056 1183.8344340046767 412.2233816739971Q1185.9730201844222 409.83184444073345 1185.9730201844222 405.02577442388633L1185.9730201844222 405.02577442388633Q1185.9730201844222 399.0699268910471 1182.5006920861258 397.0923095635406Q1179.0283639878294 395.0916966857143 1173.2334853072293 393.78095031748325L1173.2334853072293 393.78095031748325L1150.0539705848278 388.46897819359964Q1143.4312520927133 386.8132985705709 1139.4530218873804 384.0768280825096Q1135.4747916820475 381.3633531447682 1133.65814320678 376.97120303367825Q1131.8414947315123 372.5790529225883 1131.8414947315123 365.9563344304736L1131.8414947315123 365.9563344304736Q1131.8414947315123 356.5281587993381 1135.1528539775697 351.72208878249097Q1138.4642132236272 346.91601876564386 1145.4088694202196 345.2603391426152Q1152.3765211671318 343.6046595195865 1163.2994075690572 343.7656283718254ZM1247.394135088722 343.7656283718254L1247.394135088722 343.7656283718254Q1252.7061072126055 343.7656283718254 1258.6619547454447 344.11056162662305Q1264.6178022782842 344.4324993311008 1270.5046631601638 344.93840143813736Q1276.3685284917237 345.4213079948541 1281.3355673608098 346.2491478063684L1281.3355673608098 346.2491478063684L1280.1857898448175 356.5281587993381Q1272.5742626889496 356.18322554454045 1264.8707533318025 355.9302744910222Q1257.167243974655 355.7003189878238 1249.555716818787 355.7003189878238L1249.555716818787 355.7003189878238Q1242.105158515158 355.516354585265 1237.8049906053475 356.02225669230154Q1233.5048226955369 356.5281587993381 1231.5961920189898 358.6667449790835Q1229.6875613424431 360.82832670914866 1229.6875613424431 365.9563344304736L1229.6875613424431 365.9563344304736Q1229.6875613424431 372.25711521811047 1232.6769828840224 374.23473254561696Q1235.6434088752824 376.21234987312346 1241.4382875558827 377.5460917916743L1241.4382875558827 377.5460917916743L1264.9627355330817 382.8350683652381Q1274.551880016456 385.15761894754223 1279.104998979785 389.96368896438935Q1283.658117943114 394.7697589812365 1283.658117943114 405.02577442388633L1283.658117943114 405.02577442388633Q1283.658117943114 414.9598521620584 1279.9328387912994 419.9268910311444Q1276.2075596394848 424.89392990023043 1268.596032483617 426.5496095232591Q1260.984505327749 428.2052891462878 1249.2337791143093 428.2052891462878L1249.2337791143093 428.2052891462878Q1244.9106156541789 428.2052891462878 1236.402262035837 427.88335144180996Q1227.8709128671753 427.5384181870123 1217.5919018742059 425.88273856398365L1217.5919018742059 425.88273856398365L1218.6037060882788 415.6267231213338Q1222.5589407432917 415.7876919735727 1227.0430730556611 416.040643027091Q1231.5042098177105 416.29359408060924 1236.402262035837 416.29359408060924Q1241.2773187036437 416.29359408060924 1246.4053264249687 416.29359408060924L1246.4053264249687 416.29359408060924Q1255.5115643516265 416.29359408060924 1260.6395720729513 415.46575426909493Q1265.7905753445962 414.63791445758056 1267.9291615243415 412.2233816739971Q1270.0907432544068 409.83184444073345 1270.0907432544068 405.02577442388633L1270.0907432544068 405.02577442388633Q1270.0907432544068 399.0699268910471 1266.6184151561104 397.0923095635406Q1263.1230915074943 395.0916966857143 1257.3282128268938 393.78095031748325L1257.3282128268938 393.78095031748325L1234.1486981044925 388.46897819359964Q1227.5259796123778 386.8132985705709 1223.570744957365 384.0768280825096Q1219.592514752032 381.3633531447682 1217.7758662767644 376.97120303367825Q1215.936222251177 372.5790529225883 1215.936222251177 365.9563344304736L1215.936222251177 365.9563344304736Q1215.936222251177 356.5281587993381 1219.2475814972345 351.72208878249097Q1222.5589407432917 346.91601876564386 1229.5265924902042 345.2603391426152Q1236.4712486867966 343.6046595195865 1247.394135088722 343.7656283718254ZM1360.9921536687448 345.7662412496517L1376.2152079804805 345.7662412496517L1343.9294553314217 430.8497774330697Q1341.9518380039149 436.16174955695334 1338.9624164623356 441.2897572782783Q1335.9729949207558 446.4177649996032 1331.7648092122247 450.64894625845426Q1327.5336279533735 454.85713196698543 1321.8307314740528 457.5246158040872Q1316.104839444412 460.1691040908691 1308.6542811407828 460.4910417953469L1308.6542811407828 460.4910417953469L1307.3435347725517 451.2238350164503Q1317.116643658485 448.0734446226318 1322.4056202320487 442.78446804906804Q1327.6945968056125 437.4724959251844 1330.8449871994312 429.86096876931646L1330.8449871994312 429.86096876931646L1334.823217404764 420.27182428594205Q1336.1569593233148 416.9604650398847 1337.4677056915457 412.9822348345519Q1338.8014476100966 409.0040046292191 1339.9512251260885 405.8536142354007L1339.9512251260885 405.8536142354007L1360.9921536687448 345.7662412496517ZM1294.7649687475978 345.7662412496517L1309.827054207095 345.7662412496517L1331.1899204542287 405.8536142354007Q1332.017760265743 408.3371336699437 1332.8456000772574 410.75166645352715Q1333.6734398887718 413.1432036867908 1334.1563464454885 415.6267231213338L1334.1563464454885 415.6267231213338L1337.9736077985824 415.6267231213338L1333.328506633974 426.3886406710202L1329.0283387241634 426.3886406710202Q1327.372659101135 426.3886406710202 1325.9699305316244 425.399832007267Q1324.5672019621138 424.4110233435137 1324.0612998550773 422.75534372048503L1324.0612998550773 422.75534372048503L1294.7649687475978 345.7662412496517Z " fill="#0b2545" transform="matrix(0.6358017217560298,0,0,0.6358017217560298,0,54.90411748759182)"/></g></svg>